<svg width="20" height="20" viewBox="0 0 20 20" fill="none" xmlns="http://www.w3.org/2000/svg">
<path id="Vector" d="M14.4008 0.317185C14.6039 0.114092 14.8794 0 15.1667 0C15.4539 0 15.7294 0.114092 15.9326 0.317185L19.1826 3.56719C19.3857 3.77034 19.4998 4.04584 19.4998 4.3331C19.4998 4.62036 19.3857 4.89586 19.1826 5.09902L9.43258 14.849C9.22947 15.0522 8.95396 15.1664 8.66667 15.1664H5.41667C5.12935 15.1664 4.8538 15.0523 4.65063 14.8491C4.44747 14.646 4.33333 14.3704 4.33333 14.0831V10.8331C4.3334 10.5458 4.44757 10.2703 4.65075 10.0672L14.4008 0.317185ZM6.5 11.2816V12.9998H8.21817L16.8848 4.3331L15.1667 2.61494L6.5 11.2816ZM0 4.3331C0 3.75847 0.228273 3.20737 0.634602 2.80104C1.04093 2.39471 1.59203 2.16644 2.16667 2.16644H7.58333C7.87065 2.16644 8.1462 2.28057 8.34937 2.48374C8.55253 2.6869 8.66667 2.96245 8.66667 3.24977C8.66667 3.53709 8.55253 3.81264 8.34937 4.0158C8.1462 4.21897 7.87065 4.3331 7.58333 4.3331H2.16667V17.3331H15.1667V11.9164C15.1667 11.6291 15.2808 11.3536 15.484 11.1504C15.6871 10.9472 15.9627 10.8331 16.25 10.8331C16.5373 10.8331 16.8129 10.9472 17.016 11.1504C17.2192 11.3536 17.3333 11.6291 17.3333 11.9164V17.3331C17.3333 17.9077 17.1051 18.4588 16.6987 18.8652C16.2924 19.2715 15.7413 19.4998 15.1667 19.4998H2.16667C1.59203 19.4998 1.04093 19.2715 0.634602 18.8652C0.228273 18.4588 0 17.9077 0 17.3331V4.3331Z" fill="#BEBEBE"/>
</svg>
