<svg width="22" height="23" viewBox="0 0 22 23" fill="none" xmlns="http://www.w3.org/2000/svg">
<path d="M3.14286 0C1.40937 0 0 1.47344 0 3.28571V19.7143C0 21.5266 1.40937 23 3.14286 23H18.8571C20.5906 23 22 21.5266 22 19.7143V3.28571C22 1.47344 20.5906 0 18.8571 0H3.14286ZM9.82143 16.0179V12.7321H6.67857C6.02545 12.7321 5.5 12.1828 5.5 11.5C5.5 10.8172 6.02545 10.2679 6.67857 10.2679H9.82143V6.98214C9.82143 6.29933 10.3469 5.75 11 5.75C11.6531 5.75 12.1786 6.29933 12.1786 6.98214V10.2679H15.3214C15.9746 10.2679 16.5 10.8172 16.5 11.5C16.5 12.1828 15.9746 12.7321 15.3214 12.7321H12.1786V16.0179C12.1786 16.7007 11.6531 17.25 11 17.25C10.3469 17.25 9.82143 16.7007 9.82143 16.0179Z" fill="black"/>
</svg>
