
<svg width="142" height="120" viewBox="0 0 142 120" fill="none" xmlns="http://www.w3.org/2000/svg">
<g filter="url(#filter0_d_226_969)">
<path d="M130.5 48.5C134.642 48.5 138 51.8579 138 56C138 60.1421 134.642 63.5 130.5 63.5L130.5 48.5ZM6.69669 61.3033C3.76776 58.3744 3.76776 53.6256 6.69669 50.6967L54.4264 2.967C57.3553 0.0380632 62.1041 0.0380634 65.033 2.967C67.9619 5.89593 67.9619 10.6447 65.033 13.5736L22.6066 56L65.033 98.4264C67.9619 101.355 67.9619 106.104 65.033 109.033C62.1041 111.962 57.3553 111.962 54.4264 109.033L6.69669 61.3033ZM130.5 63.5L12 63.5L12 48.5L130.5 48.5L130.5 63.5Z" fill="#FFAD62"/>
</g>
<defs>
<filter id="filter0_d_226_969" x="0.5" y="0.770508" width="141.5" height="118.459" filterUnits="userSpaceOnUse" color-interpolation-filters="sRGB">
<feFlood flood-opacity="0" result="BackgroundImageFix"/>
<feColorMatrix in="SourceAlpha" type="matrix" values="0 0 0 0 0 0 0 0 0 0 0 0 0 0 0 0 0 0 127 0" result="hardAlpha"/>
<feOffset dy="4"/>
<feGaussianBlur stdDeviation="2"/>
<feComposite in2="hardAlpha" operator="out"/>
<feColorMatrix type="matrix" values="0 0 0 0 0 0 0 0 0 0 0 0 0 0 0 0 0 0 0.25 0"/>
<feBlend mode="normal" in2="BackgroundImageFix" result="effect1_dropShadow_226_969"/>
<feBlend mode="normal" in="SourceGraphic" in2="effect1_dropShadow_226_969" result="shape"/>
</filter>
</defs>
</svg>
