
<svg width="142" height="120" viewBox="0 0 142 120" fill="none" xmlns="http://www.w3.org/2000/svg">
<g filter="url(#filter0_d_226_969)">
<path d="M12 48.5C7.85786 48.5 4.5 51.8579 4.5 56C4.5 60.1421 7.85786 63.5 12 63.5L12 48.5ZM135.803 61.3033C138.732 58.3744 138.732 53.6256 135.803 50.6967L88.0736 2.967C85.1447 0.0380632 80.3959 0.0380634 77.467 2.967C74.5381 5.89593 74.5381 10.6447 77.467 13.5736L119.893 56L77.467 98.4264C74.5381 101.355 74.5381 106.104 77.467 109.033C80.3959 111.962 85.1447 111.962 88.0736 109.033L135.803 61.3033ZM12 63.5L130.5 63.5L130.5 48.5L12 48.5L12 63.5Z" fill="#FFAD62"/>
</g>
<defs>
<filter id="filter0_d_226_969" x="0.5" y="0.770508" width="141.5" height="118.459" filterUnits="userSpaceOnUse" color-interpolation-filters="sRGB">
<feFlood flood-opacity="0" result="BackgroundImageFix"/>
<feColorMatrix in="SourceAlpha" type="matrix" values="0 0 0 0 0 0 0 0 0 0 0 0 0 0 0 0 0 0 127 0" result="hardAlpha"/>
<feOffset dy="4"/>
<feGaussianBlur stdDeviation="2"/>
<feComposite in2="hardAlpha" operator="out"/>
<feColorMatrix type="matrix" values="0 0 0 0 0 0 0 0 0 0 0 0 0 0 0 0 0 0 0.25 0"/>
<feBlend mode="normal" in2="BackgroundImageFix" result="effect1_dropShadow_226_969"/>
<feBlend mode="normal" in="SourceGraphic" in2="effect1_dropShadow_226_969" result="shape"/>
</filter>
</defs>
</svg>
