<svg width="1404" height="1000" viewBox="0 0 1404 1000" fill="none" xmlns="http://www.w3.org/2000/svg">
<path d="M497.354 935.206C400.611 813.275 347.199 662.613 345.54 506.973C343.881 351.332 394.068 199.566 488.19 75.5999" stroke="url(#paint0_linear_28_2)" stroke-width="5"/>
<path d="M25.2622 453.435C25.2622 425.821 47.648 403.435 75.2622 403.435H416.752C422.274 403.435 426.752 407.912 426.752 413.435V552.227C426.752 557.749 422.274 562.227 416.752 562.227H35.2622C29.7394 562.227 25.2622 557.749 25.2622 552.227V453.435Z" fill="url(#paint1_linear_28_2)"/>
<path d="M105.56 399C105.56 393.477 110.037 389 115.56 389H227.36C235.333 389 241.796 395.463 241.796 403.436H105.56V399Z" fill="#D9D9D9"/>
<path d="M146.16 561.776C146.16 578.468 132.628 592 115.936 592C99.2434 592 85.7114 578.468 85.7114 561.776C85.7114 545.083 99.2434 531.551 115.936 531.551C132.628 531.551 146.16 545.083 146.16 561.776Z" fill="#D9D9D9"/>
<path d="M374.449 561.776C374.449 578.468 360.917 592 344.224 592C327.532 592 314 578.468 314 561.776C314 545.083 327.532 531.551 344.224 531.551C360.917 531.551 374.449 545.083 374.449 561.776Z" fill="#D9D9D9"/>
<path d="M0 448.133C0 445.372 2.23858 443.133 5 443.133H17.5556C20.317 443.133 22.5556 445.372 22.5556 448.133V477.831C22.5556 480.592 20.317 482.831 17.5556 482.831H4.99999C2.23857 482.831 0 480.592 0 477.831V448.133Z" fill="#D9D9D9"/>
<defs>
<linearGradient id="paint0_linear_28_2" x1="1046.5" y1="-204" x2="1046.5" y2="1203" gradientUnits="userSpaceOnUse">
<stop offset="0.405" stop-color="#777777"/>
<stop offset="0.525" stop-color="#D9D9D9"/>
</linearGradient>
<linearGradient id="paint1_linear_28_2" x1="427" y1="483" x2="155" y2="483" gradientUnits="userSpaceOnUse">
<stop stop-color="white"/>
<stop offset="0.26" stop-color="#D9D9D9"/>
</linearGradient>
</defs>
</svg>
