<svg width="28" height="25" viewBox="0 0 28 25" fill="none" xmlns="http://www.w3.org/2000/svg">
<path id="Vector" d="M24.7692 3.26087H21.0377L19.2029 0.483696C19.1046 0.334989 18.9715 0.213048 18.8153 0.128676C18.6592 0.0443046 18.4848 0.000107344 18.3077 0H9.69231C9.51519 0.000107344 9.34084 0.0443046 9.18469 0.128676C9.02854 0.213048 8.89541 0.334989 8.79712 0.483696L6.96096 3.26087H3.23077C2.37392 3.26087 1.55216 3.60442 0.94627 4.21596C0.340384 4.82749 0 5.6569 0 6.52174V21.7391C0 22.604 0.340384 23.4334 0.94627 24.0449C1.55216 24.6564 2.37392 25 3.23077 25H24.7692C25.6261 25 26.4478 24.6564 27.0537 24.0449C27.6596 23.4334 28 22.604 28 21.7391V6.52174C28 5.6569 27.6596 4.82749 27.0537 4.21596C26.4478 3.60442 25.6261 3.26087 24.7692 3.26087ZM18.8462 13.587C18.8462 14.5544 18.5619 15.5 18.0294 16.3044C17.4969 17.1088 16.7401 17.7357 15.8545 18.1059C14.969 18.4761 13.9946 18.573 13.0546 18.3843C12.1145 18.1955 11.251 17.7297 10.5733 17.0456C9.89551 16.3616 9.43395 15.49 9.24696 14.5412C9.05997 13.5924 9.15594 12.6089 9.52274 11.7151C9.88953 10.8214 10.5107 10.0574 11.3076 9.51999C12.1046 8.98252 13.0415 8.69565 14 8.69565C15.2853 8.69565 16.5179 9.21098 17.4267 10.1283C18.3356 11.0456 18.8462 12.2897 18.8462 13.587Z" fill="#4D4D4D"/>
</svg>
