<svg width="23" height="21" viewBox="0 0 23 21" fill="none" xmlns="http://www.w3.org/2000/svg">
<path d="M10.7345 0.278833C10.9455 0.0992075 11.2178 0 11.5 0C11.7822 0 12.0545 0.0992075 12.2655 0.278833L22.6412 9.12128C22.858 9.31881 22.9863 9.58945 22.999 9.876C23.0116 10.1626 22.9075 10.4426 22.7088 10.657C22.5101 10.8713 22.2322 11.0032 21.9339 11.0248C21.6356 11.0464 21.3402 10.956 21.1102 10.7726L20.7228 10.4443V18.7894C20.7228 19.3757 20.4799 19.938 20.0475 20.3525C19.6151 20.7671 19.0286 21 18.4171 21H4.58289C3.97138 21 3.38492 20.7671 2.95251 20.3525C2.52011 19.938 2.27719 19.3757 2.27719 18.7894V10.4443L1.88983 10.7726C1.65979 10.956 1.36442 11.0464 1.06612 11.0248C0.767818 11.0032 0.489945 10.8713 0.291201 10.657C0.0924563 10.4426 -0.0115949 10.1626 0.00102771 9.876C0.0136503 9.58945 0.141958 9.31881 0.358846 9.12128L10.7345 0.278833ZM4.58289 8.47688V18.7894H8.04145V13.2629C8.04145 12.9697 8.16291 12.6886 8.37911 12.4813C8.59531 12.274 8.88854 12.1576 9.1943 12.1576H13.8057C14.1115 12.1576 14.4047 12.274 14.6209 12.4813C14.8371 12.6886 14.9586 12.9697 14.9586 13.2629V18.7894H18.4171V8.47799L11.5 2.58339L4.58289 8.47688ZM12.6529 18.7894V14.3682H10.3471V18.7894H12.6529Z" fill="black"/>
</svg>
