<svg width="58" height="56" viewBox="0 0 58 56" fill="none" xmlns="http://www.w3.org/2000/svg">
<path d="M57.3827 52.3947C57.4893 53.8468 56.3408 55.0774 54.8887 55.0774H42.6073C41.5736 55.0774 40.7368 54.2406 40.7368 53.2069V51.9024C40.7368 50.8687 39.9 50.0319 38.8663 50.0319C38.2018 50.0319 37.5783 50.3929 37.2501 50.9672C36.643 52.0255 36.0359 53.0756 35.4206 54.1339C35.0842 54.7082 34.4689 55.0692 33.8044 55.0692H24.5914C23.9268 55.0692 23.3115 54.7164 22.9752 54.1339C22.3599 53.0756 21.7528 52.0173 21.1457 50.959C20.8093 50.3847 20.194 50.0237 19.5295 50.0237C18.4958 50.0237 17.659 50.8605 17.659 51.8942V53.1987C17.659 54.2324 16.8222 55.0692 15.7885 55.0692H2.87541C1.612 55.0692 0.611109 53.9944 0.717761 52.731L3.2692 20.2186C3.40046 18.6435 4.7049 17.4375 6.28006 17.4375C14.0738 17.4375 21.2195 21.7528 24.8539 28.6441L26.831 32.4016C27.151 33.0169 27.7909 33.3942 28.48 33.3942H29.5712C30.2931 33.3942 30.9494 32.9758 31.2612 32.3277L32.984 28.7098C36.2492 21.8266 43.1898 17.4375 50.8031 17.4375H52.0911C53.6745 17.4375 54.9871 18.6599 55.102 20.2433L57.3909 52.3865L57.3827 52.3947Z" fill="#1091E8"/>
<path d="M24.1978 10.2349C25.5596 11.6214 26.8231 13.1637 27.8403 14.8373C28.4228 15.7808 29.3663 17.7251 29.3663 17.7251C29.3663 17.7251 30.0554 16.4945 30.9579 14.9932C32.7709 11.9988 34.7399 9.06173 37.0616 6.36262C39.1618 3.95065 41.541 1.64533 44.4944 0.119393C45.0113 -0.151338 45.6512 0.0537619 45.8973 0.578817C46.1188 1.03824 45.9711 1.59611 45.5445 1.86684C43.0998 3.4338 41.098 5.73092 39.3587 8.1675C37.4472 10.8666 35.8392 13.82 34.3789 16.8473C33.6488 18.365 32.9596 19.8992 32.2869 21.4579L31.286 23.8125L31.2204 23.9602L31.1712 24.0586C30.9579 24.477 30.6051 24.8298 30.2523 25.0349C29.5222 25.4287 28.8166 25.4779 28.0372 25.1497C27.6517 24.9775 27.2497 24.6493 26.9953 24.2391L26.8559 23.993L26.8149 23.9191L26.7328 23.7715L26.4129 23.1972C26.1996 22.8198 26.0027 22.4424 25.7811 22.0897C24.1486 19.2019 22.2206 17.0852 19.7512 15.3624L24.165 10.2431H24.1978V10.2349Z" fill="#1091E8"/>
</svg>
