<svg width="53" height="14" viewBox="0 0 53 14" fill="none" xmlns="http://www.w3.org/2000/svg">
<path d="M8.21338 3.4043C8.0529 3.53711 7.87858 3.64779 7.69043 3.73633C7.50228 3.81934 7.29199 3.86084 7.05957 3.86084C6.82715 3.86084 6.60303 3.8221 6.38721 3.74463C6.17139 3.66715 5.98324 3.55924 5.82275 3.4209C5.47412 3.12207 5.2998 2.74023 5.2998 2.27539C5.2998 1.56152 5.89746 1.03027 7.09277 0.681641C7.49674 0.559896 7.82878 0.499023 8.08887 0.499023C8.34896 0.499023 8.54264 0.52946 8.66992 0.590332C8.80273 0.645671 8.91064 0.720378 8.99365 0.814453C9.15967 1.0026 9.24268 1.19629 9.24268 1.39551C9.24268 1.58919 9.21777 1.76628 9.16797 1.92676C9.1237 2.08724 9.05729 2.25326 8.96875 2.4248C8.88021 2.59635 8.7723 2.7679 8.64502 2.93945C8.51774 3.111 8.37386 3.26595 8.21338 3.4043ZM6.12158 12.5435C5.70101 12.7593 5.2915 12.9308 4.89307 13.0581C4.49463 13.1909 4.10173 13.2573 3.71436 13.2573C3.33252 13.2573 2.93408 13.166 2.51904 12.9834C2.10954 12.7952 1.7443 12.5462 1.42334 12.2363C0.709473 11.5446 0.352539 10.7754 0.352539 9.92871C0.352539 9.14844 0.584961 8.3571 1.0498 7.55469C1.47591 6.82975 2.01823 6.22103 2.67676 5.72852C3.33529 5.236 3.94678 4.98975 4.51123 4.98975C5.31917 4.98975 5.75081 5.21663 5.80615 5.67041C5.82275 5.80876 5.83105 5.96924 5.83105 6.15186C5.83105 6.33447 5.78678 6.54476 5.69824 6.78271C5.61523 7.01514 5.50456 7.25033 5.36621 7.48828C5.2334 7.7207 5.08398 7.95036 4.91797 8.17725C4.75749 8.3986 4.60254 8.60059 4.45312 8.7832C4.16536 9.13184 3.93571 9.38363 3.76416 9.53857C3.76416 9.72673 3.90527 9.92041 4.1875 10.1196C4.45312 10.3078 4.67725 10.4019 4.85986 10.4019C5.04801 10.4019 5.2666 10.3576 5.51562 10.269C5.77018 10.1805 6.03027 10.0615 6.2959 9.91211C6.56706 9.7627 6.84098 9.59115 7.11768 9.39746C7.3999 9.20378 7.6766 9.00456 7.94775 8.7998L9.4668 7.61279C10.07 7.17562 10.5597 6.95703 10.936 6.95703C11.0854 6.95703 11.1989 7.01237 11.2764 7.12305C11.3594 7.22819 11.4009 7.3527 11.4009 7.49658C11.4009 7.64046 11.3289 7.83968 11.1851 8.09424C11.0412 8.34326 10.842 8.61995 10.5874 8.92432C10.3384 9.22868 10.0451 9.54688 9.70752 9.87891C9.36995 10.2109 9.00472 10.5374 8.61182 10.8584C8.21891 11.1794 7.80941 11.4865 7.3833 11.7798C6.96273 12.0675 6.54215 12.3221 6.12158 12.5435ZM18.7222 8.54248C18.7222 9.04606 18.8688 9.29785 19.1621 9.29785C19.8815 9.29785 20.8167 8.81087 21.9678 7.83691L22.1919 7.646C22.6401 7.34717 23.0026 7.19775 23.2793 7.19775C23.5615 7.19775 23.7386 7.23926 23.8105 7.32227C23.888 7.40527 23.9268 7.53809 23.9268 7.7207C23.9268 8.13021 23.7192 8.56462 23.3042 9.02393C22.6844 9.77653 21.835 10.4904 20.7559 11.1655C19.5052 11.9513 18.3846 12.3442 17.394 12.3442C16.7023 12.3442 16.2679 11.9596 16.0908 11.1904C16.041 10.9912 16.005 10.8003 15.9829 10.6177C15.9276 10.175 15.8695 9.92871 15.8086 9.87891C15.7477 9.8291 15.626 9.83464 15.4434 9.89551C15.2663 9.95085 15.0532 10.0477 14.8042 10.186C14.5607 10.3188 14.2896 10.4821 13.9907 10.6758C12.408 11.7272 11.4977 12.3276 11.2598 12.4771C10.6898 12.8312 10.3052 13.0083 10.106 13.0083C9.90674 13.0083 9.71029 12.9668 9.5166 12.8838C9.32845 12.8008 9.16243 12.6956 9.01855 12.5684C8.71973 12.2861 8.57031 11.9984 8.57031 11.7051C8.57031 10.0283 8.93555 8.56185 9.66602 7.30566C10.153 6.45898 10.7507 5.8724 11.459 5.5459C11.8187 5.37435 12.2061 5.28857 12.6211 5.28857C13.3792 5.28857 13.7583 5.5376 13.7583 6.03564C13.7583 6.34001 13.5785 6.83805 13.2188 7.52979L12.9697 8.01953C12.7926 8.3571 12.7069 8.54801 12.7124 8.59229C12.7456 8.7583 12.8203 8.84131 12.9365 8.84131C13.0638 8.84131 13.252 8.74723 13.501 8.55908L15.0283 7.42188L15.792 6.89062C16.6719 6.3151 17.3193 6.02734 17.7344 6.02734C17.9557 6.02734 18.1577 6.11589 18.3403 6.29297C18.6779 6.61393 18.8467 6.89339 18.8467 7.13135C18.8467 7.20882 18.8384 7.3029 18.8218 7.41357C18.8107 7.52425 18.7969 7.64323 18.7803 7.77051L18.7471 8.16064C18.7305 8.29346 18.7222 8.42074 18.7222 8.54248ZM25.645 7.62939C25.645 7.82861 25.7197 7.92822 25.8691 7.92822C26.0518 7.92822 26.2869 7.80648 26.5747 7.56299L27.2969 6.94043C28.0605 6.2819 28.7882 5.95264 29.48 5.95264C29.9282 5.95264 30.3267 6.32617 30.6753 7.07324C30.9797 7.71517 31.2536 8.67253 31.4971 9.94531C31.5413 10.1556 31.5773 10.2607 31.605 10.2607C31.6382 10.2607 31.7184 10.2109 31.8457 10.1113C31.9785 10.0117 32.139 9.88444 32.3271 9.72949C33.6829 8.57292 34.466 7.92822 34.6763 7.79541C34.8921 7.65706 35.0415 7.56576 35.1245 7.52148C35.2075 7.47168 35.2933 7.42741 35.3818 7.38867C35.6032 7.30566 35.7775 7.26416 35.9048 7.26416C36.1483 7.26416 36.27 7.39144 36.27 7.646C36.27 8.03337 36.0155 8.59782 35.5063 9.33936C34.9364 10.1694 34.181 10.9967 33.2402 11.8213C32.1445 12.7897 31.1872 13.2739 30.3682 13.2739C29.5049 13.2739 28.9238 12.6929 28.625 11.5308C28.5475 11.2319 28.4867 10.9525 28.4424 10.6924L28.3179 10.0449C28.2847 9.87337 28.2404 9.7876 28.1851 9.7876C28.1353 9.7876 28.0273 9.87061 27.8613 10.0366L27.2471 10.6592C26.5609 11.3564 25.9854 11.8656 25.5205 12.1865C24.5853 12.8395 23.7663 13.166 23.0635 13.166C22.2223 13.166 21.7271 12.7399 21.5776 11.8877C21.5334 11.6331 21.5112 11.3122 21.5112 10.9248C21.5112 10.5319 21.5666 10.0532 21.6772 9.48877C21.7879 8.92432 21.9401 8.35986 22.1338 7.79541C22.5544 6.58903 23.0773 5.55973 23.7026 4.70752L24.4414 3.72803C26.2288 1.39274 27.723 0.225098 28.9238 0.225098C29.195 0.225098 29.3914 0.35791 29.5132 0.623535C29.5519 0.706543 29.5713 0.831055 29.5713 0.99707C29.5713 1.16309 29.4993 1.37891 29.3555 1.64453C29.2116 1.90462 29.0345 2.17578 28.8242 2.45801C28.6139 2.74023 28.387 3.02799 28.1436 3.32129C27.9056 3.60905 27.687 3.89404 27.4878 4.17627L26.8652 5.08105C26.0518 6.30404 25.645 7.15348 25.645 7.62939ZM49.3354 6.76611C49.5125 6.76611 49.6011 6.91553 49.6011 7.21436C49.6011 7.729 49.2414 8.39583 48.522 9.21484L48.0488 9.69629C46.6156 11.1296 45.2653 12.0841 43.998 12.5601C43.2122 12.8534 42.6478 12.8395 42.3047 12.5186C42.0225 12.2474 41.7983 11.8102 41.6323 11.207L41.4331 10.4849L39.665 11.5723L38.644 12.1533C37.4266 12.8174 36.5135 13.1494 35.9048 13.1494C35.1245 13.1494 34.4743 12.8478 33.9541 12.2446C33.4561 11.6746 33.207 11.0133 33.207 10.2607C33.207 9.51921 33.5031 8.85791 34.0952 8.27686C34.9419 7.44678 36.2783 6.68587 38.1045 5.99414C39.8311 5.34668 41.2256 5.02295 42.2881 5.02295C42.6478 5.02295 42.8276 5.20003 42.8276 5.5542C42.8276 5.79769 42.7806 5.98031 42.6865 6.10205C42.5924 6.2238 42.3988 6.34831 42.1055 6.47559L41.0596 6.92383C39.5101 7.57129 38.3757 8.24365 37.6562 8.94092C37.4515 9.1346 37.3491 9.32275 37.3491 9.50537C37.3491 9.68799 37.4958 9.7793 37.7891 9.7793C38.0768 9.7793 38.7464 9.4694 39.7979 8.84961L40.4868 8.44287C41.5549 7.80094 42.4486 7.47998 43.168 7.47998C43.7767 7.47998 44.1807 7.74837 44.3799 8.28516C44.4297 8.42904 44.4767 8.57568 44.521 8.7251C44.5653 8.86898 44.6095 8.99902 44.6538 9.11523C44.7534 9.38639 44.842 9.52197 44.9194 9.52197C45.0024 9.52197 45.1187 9.48324 45.2681 9.40576C45.4175 9.32275 45.5807 9.22038 45.7578 9.09863C45.9404 8.97135 46.1286 8.83301 46.3223 8.68359L47.3267 7.87842C48.2176 7.13688 48.8872 6.76611 49.3354 6.76611ZM52.6807 10.7754C52.7913 10.9248 52.8467 11.1296 52.8467 11.3896C52.8467 11.6442 52.7664 11.8877 52.606 12.1201C52.4455 12.347 52.238 12.5407 51.9834 12.7012C51.4632 13.0387 50.8739 13.2075 50.2153 13.2075C49.5789 13.2075 49.1279 13.0443 48.8623 12.7178C48.7184 12.5352 48.6465 12.3193 48.6465 12.0703C48.6465 11.5778 48.8983 11.1406 49.4019 10.7588C49.9054 10.377 50.5059 10.186 51.2031 10.186C51.9059 10.186 52.3984 10.3825 52.6807 10.7754Z" fill="#1091E8"/>
</svg>
