<svg width="143" height="14" viewBox="0 0 143 14" fill="none" xmlns="http://www.w3.org/2000/svg">
<path d="M142.727 5.72896C142.909 5.72896 143 5.83124 143 6.03581C143 6.17219 142.953 6.34456 142.858 6.55292C142.767 6.75749 142.634 6.95069 142.46 7.13253C142.286 7.31058 142.085 7.49621 141.858 7.68942C141.634 7.88262 141.371 8.0853 141.068 8.29744C140.769 8.50959 140.437 8.71984 140.073 8.9282C139.71 9.13656 139.323 9.32408 138.914 9.49077C138.009 9.86202 137.132 10.0477 136.283 10.0477C135.635 10.0477 135.069 9.87907 134.584 9.54191C134.077 9.1896 133.823 8.76151 133.823 8.25767C133.823 7.46591 134.249 6.71392 135.101 6.00172C135.836 5.38801 136.702 4.91257 137.698 4.57541C138.304 4.37084 138.818 4.26855 139.238 4.26855C139.579 4.26855 139.867 4.3519 140.102 4.51858C140.352 4.70042 140.477 4.94477 140.477 5.25163C140.477 5.73274 140.096 6.265 139.335 6.84841C139.214 6.94312 139.104 7.02267 139.005 7.08707L138.801 7.22345C138.422 7.48864 137.846 7.78602 137.073 8.1156C137.312 8.24062 137.533 8.30313 137.738 8.30313C137.946 8.30313 138.132 8.2785 138.295 8.22925C138.462 8.18001 138.649 8.10992 138.857 8.019C139.066 7.92808 139.287 7.82011 139.522 7.6951C139.761 7.5663 140.002 7.42613 140.244 7.27459C140.786 6.93743 141.255 6.5927 141.653 6.24038C141.862 6.04718 142.127 5.89375 142.449 5.7801C142.555 5.746 142.648 5.72896 142.727 5.72896ZM136.459 7.32574L136.772 7.16663C136.874 7.11359 136.965 7.06434 137.045 7.01888C137.81 6.57944 138.246 6.30857 138.352 6.20629C138.458 6.104 138.511 6.03392 138.511 5.99603C138.511 5.95436 138.499 5.90701 138.477 5.85397C138.454 5.80093 138.424 5.75358 138.386 5.71191C138.295 5.60584 138.198 5.5528 138.096 5.5528C137.994 5.5528 137.88 5.57174 137.755 5.60962C137.634 5.64751 137.511 5.70054 137.386 5.76873C137.261 5.83314 137.139 5.91269 137.022 6.0074C136.908 6.09832 136.808 6.19681 136.721 6.30289C136.52 6.54155 136.42 6.74802 136.42 6.92228C136.42 7.09654 136.433 7.23103 136.459 7.32574Z" fill="#1091E8"/>
<path d="M129.43 6.12067C129.176 6.25705 128.934 6.40669 128.703 6.56959C128.472 6.73249 128.267 6.89917 128.089 7.06965C127.911 7.24012 127.822 7.38787 127.822 7.51288C127.822 7.6379 127.922 7.70041 128.123 7.70041C128.263 7.70041 128.468 7.63222 128.737 7.49584L129.97 6.84235C130.197 6.72491 130.4 6.58664 130.578 6.42753L130.981 6.07521C131.269 5.81382 131.571 5.68312 131.885 5.68312C132.048 5.68312 132.211 5.77404 132.374 5.95588C132.537 6.13772 132.618 6.32335 132.618 6.51276C132.618 6.94842 132.44 7.59244 132.084 8.44481L132.993 7.70041L134.868 6.24C135.069 6.08847 135.236 6.0127 135.368 6.0127C135.656 6.0127 135.8 6.15098 135.8 6.42753C135.8 6.71165 135.615 7.07723 135.243 7.52425C135.069 7.7364 134.827 7.96559 134.516 8.21183L131.368 10.5985C131.159 10.7652 130.995 10.9034 130.873 11.0133C130.373 11.8202 129.892 12.4055 129.43 12.7692C128.76 13.2996 128.138 13.5647 127.566 13.5647C127.309 13.5647 127.098 13.4928 126.935 13.3488C126.788 13.2238 126.714 13.0779 126.714 12.9113C126.714 12.7559 126.756 12.5874 126.839 12.4055C126.922 12.2275 127.034 12.0475 127.174 11.8657C127.314 11.6838 127.473 11.5039 127.651 11.3258C127.83 11.1478 128.019 10.9754 128.22 10.8087C128.75 10.3882 129.127 10.0984 129.351 9.93931L129.907 9.53585C130.127 9.06989 130.317 8.56604 130.476 8.02431C129.745 8.66832 128.966 9.17407 128.14 9.54153C127.727 9.72716 127.384 9.81998 127.112 9.81998C126.839 9.81998 126.589 9.76315 126.362 9.6495C126.134 9.53585 125.939 9.38621 125.776 9.20058C125.439 8.81039 125.271 8.35768 125.271 7.84247C125.271 7.30453 125.473 6.85182 125.879 6.48435C126.488 5.93126 127.352 5.45014 128.47 5.041C129.546 4.64322 130.457 4.44434 131.203 4.44434C131.449 4.44434 131.572 4.56556 131.572 4.80802C131.572 4.9747 131.54 5.10351 131.476 5.19443C131.415 5.28156 131.266 5.36679 131.027 5.45014C130.792 5.53348 130.531 5.63198 130.243 5.74563C129.959 5.85928 129.688 5.98429 129.43 6.12067Z" fill="#1091E8"/>
<path d="M123.793 6.85449C123.793 7.19923 123.894 7.3716 124.094 7.3716C124.587 7.3716 125.227 7.03823 126.015 6.37148L126.168 6.24078C126.475 6.03621 126.723 5.93393 126.913 5.93393C127.106 5.93393 127.227 5.96234 127.277 6.01916C127.33 6.07599 127.356 6.16691 127.356 6.29192C127.356 6.57226 127.214 6.86964 126.93 7.18408C126.506 7.69929 125.924 8.18798 125.185 8.65016C124.329 9.1881 123.562 9.45707 122.884 9.45707C122.41 9.45707 122.113 9.19379 121.992 8.66721C121.958 8.53083 121.933 8.40013 121.918 8.27512C121.88 7.97205 121.84 7.80347 121.799 7.76937C121.757 7.73528 121.674 7.73907 121.549 7.78074C121.427 7.81862 121.282 7.88492 121.111 7.97963C120.944 8.07055 120.759 8.1823 120.554 8.31489C119.471 9.03468 118.848 9.44571 118.685 9.54799C118.294 9.79045 118.031 9.91167 117.895 9.91167C117.758 9.91167 117.624 9.88326 117.491 9.82644C117.363 9.76961 117.249 9.69763 117.15 9.6105C116.946 9.4173 116.844 9.2203 116.844 9.01952C116.844 7.87166 117.094 6.86775 117.594 6.0078C117.927 5.42818 118.336 5.02662 118.821 4.80311C119.067 4.68567 119.332 4.62695 119.617 4.62695C120.136 4.62695 120.395 4.79743 120.395 5.13838C120.395 5.34674 120.272 5.68769 120.026 6.16123L119.855 6.49649C119.734 6.72758 119.675 6.85828 119.679 6.88859C119.702 7.00224 119.753 7.05906 119.832 7.05906C119.92 7.05906 120.048 6.99466 120.219 6.86586L121.264 6.08735L121.787 5.72367C122.39 5.32969 122.833 5.1327 123.117 5.1327C123.269 5.1327 123.407 5.19331 123.532 5.31454C123.763 5.53426 123.878 5.72557 123.878 5.88847C123.878 5.9415 123.873 6.00591 123.861 6.08167C123.854 6.15744 123.844 6.23889 123.833 6.32602L123.81 6.5931C123.799 6.68402 123.793 6.77115 123.793 6.85449Z" fill="#1091E8"/>
<path d="M118.565 5.72896C118.747 5.72896 118.838 5.83124 118.838 6.03581C118.838 6.17219 118.791 6.34456 118.696 6.55292C118.605 6.75749 118.472 6.95069 118.298 7.13253C118.124 7.31058 117.923 7.49621 117.696 7.68942C117.472 7.88262 117.209 8.0853 116.906 8.29744C116.607 8.50959 116.275 8.71984 115.911 8.9282C115.548 9.13656 115.161 9.32408 114.752 9.49077C113.847 9.86202 112.97 10.0477 112.121 10.0477C111.473 10.0477 110.907 9.87907 110.422 9.54191C109.914 9.1896 109.661 8.76151 109.661 8.25767C109.661 7.46591 110.087 6.71392 110.939 6.00172C111.674 5.38801 112.54 4.91257 113.536 4.57541C114.142 4.37084 114.656 4.26855 115.076 4.26855C115.417 4.26855 115.705 4.3519 115.94 4.51858C116.19 4.70042 116.315 4.94477 116.315 5.25163C116.315 5.73274 115.934 6.265 115.173 6.84841C115.051 6.94312 114.942 7.02267 114.843 7.08707L114.639 7.22345C114.26 7.48864 113.684 7.78602 112.911 8.1156C113.15 8.24062 113.371 8.30313 113.576 8.30313C113.784 8.30313 113.97 8.2785 114.133 8.22925C114.299 8.18001 114.487 8.10992 114.695 8.019C114.904 7.92808 115.125 7.82011 115.36 7.6951C115.599 7.5663 115.839 7.42613 116.082 7.27459C116.624 6.93743 117.093 6.5927 117.491 6.24038C117.699 6.04718 117.965 5.89375 118.287 5.7801C118.393 5.746 118.486 5.72896 118.565 5.72896ZM112.297 7.32574L112.61 7.16663C112.712 7.11359 112.803 7.06434 112.883 7.01888C113.648 6.57944 114.084 6.30857 114.19 6.20629C114.296 6.104 114.349 6.03392 114.349 5.99603C114.349 5.95436 114.337 5.90701 114.315 5.85397C114.292 5.80093 114.262 5.75358 114.224 5.71191C114.133 5.60584 114.036 5.5528 113.934 5.5528C113.832 5.5528 113.718 5.57174 113.593 5.60962C113.472 5.64751 113.349 5.70054 113.224 5.76873C113.099 5.83314 112.977 5.91269 112.86 6.0074C112.746 6.09832 112.646 6.19681 112.559 6.30289C112.358 6.54155 112.258 6.74802 112.258 6.92228C112.258 7.09654 112.271 7.23103 112.297 7.32574Z" fill="#1091E8"/>
<path d="M111.615 5.89344C111.858 5.89344 111.979 5.99383 111.979 6.19462C111.979 6.44086 111.831 6.73445 111.536 7.0754C111.047 7.64365 110.471 8.19675 109.808 8.73469C108.729 9.59843 107.765 10.0303 106.916 10.0303C106.306 10.0303 105.806 9.76512 105.416 9.23475C105.011 8.68165 104.808 7.93914 104.808 7.00721C104.808 5.78358 105.405 4.43115 106.598 2.94991C107.356 2.00662 108.07 1.36639 108.74 1.02923C108.949 0.923154 109.108 0.870117 109.217 0.870117C109.331 0.870117 109.433 0.889059 109.524 0.926942C109.619 0.961037 109.706 1.01029 109.786 1.07469C109.971 1.23001 110.064 1.41753 110.064 1.63725C110.064 1.85698 110.004 2.11837 109.882 2.42144C109.761 2.72072 109.585 3.04083 109.354 3.38178C108.865 4.10535 108.204 4.79862 107.371 5.46157C107.155 5.8745 107.047 6.37077 107.047 6.95039C107.047 7.21178 107.13 7.45802 107.297 7.68911C107.467 7.9202 107.655 8.03574 107.859 8.03574C108.14 8.03574 108.676 7.74594 109.468 7.16632L110.479 6.38782C110.892 6.05824 111.271 5.89344 111.615 5.89344Z" fill="#1091E8"/>
<path d="M105.808 5.89344C106.051 5.89344 106.172 5.99383 106.172 6.19462C106.172 6.44086 106.024 6.73445 105.729 7.0754C105.24 7.64365 104.664 8.19675 104.001 8.73469C102.921 9.59843 101.957 10.0303 101.109 10.0303C100.499 10.0303 99.9987 9.76512 99.6085 9.23475C99.2032 8.68165 99.0005 7.93914 99.0005 7.00721C99.0005 5.78358 99.5972 4.43115 100.79 2.94991C101.548 2.00662 102.262 1.36639 102.933 1.02923C103.141 0.923154 103.3 0.870117 103.41 0.870117C103.524 0.870117 103.626 0.889059 103.717 0.926942C103.812 0.961037 103.899 1.01029 103.978 1.07469C104.164 1.23001 104.257 1.41753 104.257 1.63725C104.257 1.85698 104.196 2.11837 104.075 2.42144C103.954 2.72072 103.778 3.04083 103.546 3.38178C103.058 4.10535 102.397 4.79862 101.563 5.46157C101.347 5.8745 101.239 6.37077 101.239 6.95039C101.239 7.21178 101.323 7.45802 101.489 7.68911C101.66 7.9202 101.847 8.03574 102.052 8.03574C102.332 8.03574 102.868 7.74594 103.66 7.16632L104.672 6.38782C105.085 6.05824 105.463 5.89344 105.808 5.89344Z" fill="#1091E8"/>
<path d="M100.268 5.63766C100.389 5.63766 100.449 5.73994 100.449 5.94451C100.449 6.29683 100.203 6.75332 99.7108 7.314L99.3869 7.64358C98.4057 8.62476 97.4813 9.27825 96.6138 9.60404C96.0759 9.80482 95.6895 9.79535 95.4546 9.57563C95.2614 9.39 95.1079 9.09072 94.9943 8.6778L94.8579 8.18342L93.6475 8.92782L92.9486 9.3256C92.1152 9.7802 91.4901 10.0075 91.0734 10.0075C90.5392 10.0075 90.0941 9.80103 89.738 9.38811C89.397 8.99791 89.2266 8.5452 89.2266 8.02999C89.2266 7.52235 89.4292 7.06965 89.8346 6.67187C90.4142 6.10362 91.3291 5.58273 92.5792 5.10919C93.7612 4.66595 94.7159 4.44434 95.4432 4.44434C95.6895 4.44434 95.8126 4.56556 95.8126 4.80802C95.8126 4.9747 95.7804 5.09972 95.716 5.18306C95.6516 5.2664 95.519 5.35164 95.3182 5.43877L94.6022 5.74563C93.5415 6.18886 92.7649 6.64914 92.2724 7.12647C92.1322 7.25907 92.0621 7.38787 92.0621 7.51288C92.0621 7.6379 92.1625 7.70041 92.3633 7.70041C92.5603 7.70041 93.0187 7.48826 93.7385 7.06397L94.2101 6.78552C94.9413 6.34608 95.5531 6.12635 96.0456 6.12635C96.4623 6.12635 96.7388 6.31009 96.8752 6.67756C96.9093 6.77605 96.9415 6.87644 96.9718 6.97873C97.0021 7.07723 97.0324 7.16625 97.0627 7.24581C97.1309 7.43143 97.1915 7.52425 97.2446 7.52425C97.3014 7.52425 97.3809 7.49773 97.4832 7.44469C97.5855 7.38787 97.6973 7.31778 97.8185 7.23444C97.9435 7.14731 98.0723 7.0526 98.2049 6.95032L98.8925 6.39911C99.5024 5.89148 99.9608 5.63766 100.268 5.63766Z" fill="#1091E8"/>
<path d="M84.0496 6.22797C84.0496 6.36435 84.1008 6.43254 84.203 6.43254C84.3281 6.43254 84.4891 6.34919 84.686 6.18251L85.1804 5.75632C85.7032 5.30551 86.2014 5.0801 86.6749 5.0801C86.9818 5.0801 87.2545 5.33581 87.4932 5.84724C87.7016 6.28668 87.8891 6.94207 88.0558 7.81338C88.0861 7.95734 88.1107 8.02932 88.1296 8.02932C88.1524 8.02932 88.2073 7.99522 88.2944 7.92703C88.3854 7.85884 88.4952 7.77171 88.624 7.66564C89.5522 6.87388 90.0882 6.43254 90.2322 6.34162C90.3799 6.24691 90.4822 6.1844 90.539 6.15409C90.5958 6.12 90.6546 6.08969 90.7152 6.06317C90.8667 6.00635 90.986 5.97794 91.0732 5.97794C91.2399 5.97794 91.3232 6.06507 91.3232 6.23933C91.3232 6.50451 91.1489 6.89092 90.8004 7.39856C90.4102 7.96681 89.8931 8.53316 89.2491 9.09763C88.499 9.76058 87.8436 10.0921 87.2829 10.0921C86.692 10.0921 86.2942 9.69429 86.0896 8.89874C86.0366 8.69417 85.9949 8.50286 85.9646 8.32481L85.8794 7.88157C85.8566 7.76413 85.8263 7.70541 85.7885 7.70541C85.7544 7.70541 85.6805 7.76224 85.5668 7.87589L85.1463 8.30208C84.6766 8.77941 84.2826 9.12793 83.9644 9.34766C83.3241 9.79468 82.7635 10.0182 82.2824 10.0182C81.7065 10.0182 81.3675 9.72649 81.2652 9.14309C81.2349 8.96882 81.2197 8.7491 81.2197 8.48392C81.2197 8.21495 81.2576 7.88725 81.3334 7.50084C81.4091 7.11444 81.5133 6.72803 81.6459 6.34162C81.9338 5.51576 82.2918 4.81113 82.7199 4.22773L83.2256 3.55719C84.4493 1.95852 85.4721 1.15918 86.2942 1.15918C86.4798 1.15918 86.6143 1.2501 86.6977 1.43194C86.7242 1.48876 86.7374 1.574 86.7374 1.68765C86.7374 1.8013 86.6882 1.94905 86.5897 2.13089C86.4912 2.30894 86.37 2.49457 86.226 2.68777C86.082 2.88098 85.9267 3.07797 85.76 3.27875C85.5971 3.47574 85.4475 3.67084 85.3111 3.86405L84.8849 4.48344C84.3281 5.32066 84.0496 5.90217 84.0496 6.22797Z" fill="#1091E8"/>
<path d="M83.0155 6.2401C83.0155 6.41815 82.7825 6.76289 82.3165 7.27431C81.8392 7.79331 81.3714 8.21571 80.913 8.54151C80.0265 9.20068 79.0434 9.65149 77.9637 9.89394C77.5546 9.98865 77.1663 10.036 76.7988 10.036C76.4352 10.036 76.1321 10.0038 75.8896 9.9394C75.651 9.87879 75.435 9.79734 75.2418 9.69505C75.0524 9.58898 74.8876 9.46775 74.7475 9.33137C74.6073 9.19499 74.4898 9.05104 74.3951 8.8995C74.2095 8.60401 74.1167 8.33126 74.1167 8.08123C74.1167 7.8312 74.1451 7.61147 74.2019 7.42206C74.255 7.23264 74.3307 7.05269 74.4292 6.88222C74.774 6.26093 75.4672 5.71162 76.509 5.2343C77.3311 4.85167 78.1153 4.60354 78.8616 4.48989C79.1836 4.44064 79.4128 4.41602 79.5492 4.41602C79.6855 4.41602 79.7992 4.43117 79.8901 4.46148C79.9848 4.48799 80.0663 4.52588 80.1345 4.57513C80.286 4.68499 80.3618 4.83463 80.3618 5.02404C80.3618 5.21346 80.3125 5.3934 80.214 5.56388C80.1155 5.73057 79.9905 5.87073 79.839 5.98438C79.5435 6.20411 79.2139 6.31397 78.8502 6.31397C78.3539 6.31397 77.9448 6.24957 77.6228 6.12076C77.3993 6.20032 77.2099 6.34617 77.0545 6.55832C76.9257 6.73258 76.8613 6.8898 76.8613 7.02996C76.8613 7.16634 76.8917 7.30083 76.9523 7.43342C77.0167 7.56222 77.1057 7.67777 77.2193 7.78005C77.4694 7.99978 77.7705 8.10964 78.1229 8.10964C78.9411 8.10964 79.8939 7.67587 80.9812 6.80835L81.4983 6.40489C82.0438 5.98817 82.4321 5.77981 82.6632 5.77981C82.898 5.77981 83.0155 5.93324 83.0155 6.2401Z" fill="#1091E8"/>
<path d="M72.5483 6.85449C72.5483 7.19923 72.6487 7.3716 72.8495 7.3716C73.342 7.3716 73.9822 7.03823 74.7702 6.37148L74.9236 6.24078C75.2305 6.03621 75.4786 5.93393 75.668 5.93393C75.8612 5.93393 75.9824 5.96234 76.0317 6.01916C76.0847 6.07599 76.1112 6.16691 76.1112 6.29192C76.1112 6.57226 75.9692 6.86964 75.6851 7.18408C75.2608 7.69929 74.6793 8.18798 73.9405 8.65016C73.0844 9.1881 72.3172 9.45707 71.6391 9.45707C71.1656 9.45707 70.8682 9.19379 70.747 8.66721C70.7129 8.53083 70.6883 8.40013 70.6731 8.27512C70.6352 7.97205 70.5954 7.80347 70.5538 7.76937C70.5121 7.73528 70.4288 7.73907 70.3037 7.78074C70.1825 7.81862 70.0367 7.88492 69.8662 7.97963C69.6995 8.07055 69.5139 8.1823 69.3093 8.31489C68.2258 9.03468 67.6027 9.44571 67.4398 9.54799C67.0496 9.79045 66.7863 9.91167 66.6499 9.91167C66.5135 9.91167 66.379 9.88326 66.2464 9.82644C66.1176 9.76961 66.004 9.69763 65.9055 9.6105C65.7009 9.4173 65.5986 9.2203 65.5986 9.01952C65.5986 7.87166 65.8487 6.86775 66.3487 6.0078C66.6821 5.42818 67.0912 5.02662 67.5761 4.80311C67.8224 4.68567 68.0876 4.62695 68.3717 4.62695C68.8907 4.62695 69.1502 4.79743 69.1502 5.13838C69.1502 5.34674 69.0271 5.68769 68.7808 6.16123L68.6104 6.49649C68.4891 6.72758 68.4304 6.85828 68.4342 6.88859C68.4569 7.00224 68.5081 7.05906 68.5876 7.05906C68.6748 7.05906 68.8036 6.99466 68.974 6.86586L70.0196 6.08735L70.5424 5.72367C71.1447 5.32969 71.588 5.1327 71.8721 5.1327C72.0236 5.1327 72.1619 5.19331 72.2869 5.31454C72.518 5.53426 72.6336 5.72557 72.6336 5.88847C72.6336 5.9415 72.6279 6.00591 72.6165 6.08167C72.6089 6.15744 72.5995 6.23889 72.5881 6.32602L72.5654 6.5931C72.554 6.68402 72.5483 6.77115 72.5483 6.85449Z" fill="#1091E8"/>
<path d="M64.5191 6.40451C64.5191 6.60908 64.6934 6.71137 65.0419 6.71137C65.2995 6.71137 65.6367 6.58635 66.0534 6.33632L66.508 6.08629C66.6481 6.00674 66.7694 5.96696 66.8716 5.96696C66.9777 5.96696 67.0611 5.99916 67.1217 6.06356C67.1823 6.12796 67.2126 6.21699 67.2126 6.33064C67.2126 6.44429 67.1747 6.57688 67.0989 6.72842C67.0232 6.87616 66.919 7.03338 66.7864 7.20006C66.6538 7.36296 66.4985 7.52586 66.3204 7.68876C66.1424 7.84787 65.9511 7.99182 65.7465 8.12063C65.2919 8.40475 64.8695 8.54681 64.4793 8.54681C64.0664 8.54681 63.7368 8.47673 63.4906 8.33656C63.4148 8.2911 63.3409 8.24375 63.2689 8.1945C62.8636 8.65668 62.2764 9.08097 61.5074 9.46738C60.6891 9.87652 59.975 10.0811 59.3651 10.0811C58.7248 10.0811 58.2191 9.82916 57.8478 9.32532C57.5486 8.91618 57.3989 8.50135 57.3989 8.08085C57.3989 7.47472 57.7228 6.897 58.3706 6.34769C58.848 5.94613 59.3082 5.64116 59.7515 5.43281C60.1985 5.22445 60.602 5.06344 60.9619 4.94979C61.7233 4.71113 62.409 4.5918 63.0189 4.5918C63.2917 4.5918 63.5341 4.64483 63.7463 4.75091C63.9622 4.85319 64.1213 4.95737 64.2236 5.06344C64.4661 5.30211 64.5873 5.60707 64.5873 5.97833C64.5873 6.08819 64.5759 6.17342 64.5532 6.23404C64.5305 6.29465 64.5191 6.35148 64.5191 6.40451ZM59.8708 7.4785L59.8651 7.49555V7.50123C59.8651 7.66413 59.9011 7.77021 59.9731 7.81945C60.1474 7.92553 60.3311 7.95394 60.5243 7.90469C60.7175 7.85166 60.9012 7.78725 61.0755 7.71149C61.5074 7.52586 61.8976 7.29098 62.2461 7.00686C62.1855 6.88563 62.1552 6.76062 62.1552 6.63181C62.1552 6.35905 62.2745 6.08629 62.5132 5.81353C62.2101 5.81353 61.801 5.9556 61.2858 6.23972C60.7175 6.55415 60.2913 6.87805 60.0072 7.21143C59.9163 7.32508 59.8708 7.4141 59.8708 7.4785Z" fill="#1091E8"/>
<path d="M53.2789 8.52323L53.2903 8.13682C53.2979 7.89436 53.3206 7.62918 53.3585 7.34127L53.4494 6.67073C53.4683 6.51162 53.4873 6.36767 53.5062 6.23886C53.1463 6.63285 52.8565 6.9397 52.6368 7.15943L51.9833 7.79587C50.521 9.16345 49.6497 9.84725 49.3694 9.84725C48.9564 9.84725 48.5227 9.75822 48.0681 9.58017C47.8218 9.48167 47.6817 9.37939 47.6476 9.27331C47.5945 9.14072 47.568 8.96078 47.568 8.73348C47.568 8.50239 47.5756 8.29024 47.5907 8.09704C47.6059 7.90383 47.6248 7.71252 47.6476 7.52311C47.6703 7.3299 47.693 7.14617 47.7158 6.9719C47.7423 6.79385 47.7631 6.63853 47.7783 6.50594C47.8162 6.20666 47.8237 6.05702 47.801 6.05702L45.6871 8.65392C44.6908 9.82452 44.1244 10.4723 43.988 10.5973C43.6963 10.8625 43.3743 10.9951 43.022 10.9951C42.8478 10.9951 42.7038 10.9515 42.5902 10.8644C42.4765 10.7773 42.4197 10.6693 42.4197 10.5405C42.4197 10.2829 42.5276 10.0139 42.7436 9.7336L47.7896 3.31806L48.3806 2.60775C49.0852 1.7781 49.5474 1.36328 49.7671 1.36328C50.074 1.36328 50.3657 1.44094 50.6422 1.59626C50.8885 1.73264 51.0287 1.86524 51.0628 1.99404C51.0779 2.04329 51.0457 2.27248 50.9662 2.68162L50.7673 3.75561C50.5438 4.95272 50.432 5.72554 50.432 6.07407C50.432 6.41881 50.4718 6.59118 50.5513 6.59118C50.8089 6.59118 51.3052 6.16878 52.0401 5.32398L53.8813 3.11917C54.2866 2.65321 54.5556 2.38802 54.6882 2.32362C54.7261 2.30468 54.781 2.29521 54.853 2.29521C54.925 2.29521 55.0045 2.30468 55.0916 2.32362C55.1826 2.34256 55.2735 2.36719 55.3644 2.3975C55.4591 2.4278 55.55 2.46379 55.6372 2.50546C55.7243 2.54713 55.802 2.5907 55.8701 2.63616C56.0179 2.73466 56.0899 2.81611 56.0861 2.88051C56.0861 2.94112 56.0709 3.07561 56.0406 3.28396C56.0103 3.48853 55.9724 3.73856 55.927 4.03405C55.6125 5.99262 55.4477 7.12912 55.4326 7.44355C55.4212 7.75798 55.4534 7.95498 55.5292 8.03453C55.6088 8.11409 55.7243 8.15386 55.8758 8.15386C56.1524 8.15386 56.5539 7.98907 57.0805 7.65949C57.4366 7.43598 57.7302 7.32422 57.9613 7.32422C58.1962 7.32422 58.3136 7.43598 58.3136 7.65949C58.3136 7.89057 58.1886 8.17091 57.9386 8.5005C57.5787 8.97783 57.0407 9.40969 56.3247 9.7961C55.7224 10.1181 55.1504 10.2791 54.6086 10.2791C53.7222 10.2791 53.2789 9.69382 53.2789 8.52323Z" fill="#1091E8"/>
<path d="M35.8222 8.38295C35.898 8.48523 35.9359 8.6254 35.9359 8.80345C35.9359 8.97772 35.881 9.1444 35.7711 9.30351C35.6612 9.45884 35.5192 9.59143 35.3449 9.70129C34.9888 9.93238 34.5853 10.0479 34.1345 10.0479C33.6989 10.0479 33.3901 9.93616 33.2083 9.71265C33.1098 9.58764 33.0605 9.43989 33.0605 9.26942C33.0605 8.93226 33.2329 8.63298 33.5777 8.37158C33.9224 8.11019 34.3334 7.97949 34.8108 7.97949C35.2919 7.97949 35.629 8.11398 35.8222 8.38295Z" fill="#1091E8"/>
<path d="M33.5323 5.63766C33.6535 5.63766 33.7141 5.73994 33.7141 5.94451C33.7141 6.29683 33.4679 6.75332 32.9754 7.314L32.6515 7.64358C31.6703 8.62476 30.746 9.27825 29.8785 9.60404C29.3405 9.80482 28.9541 9.79535 28.7192 9.57563C28.526 9.39 28.3726 9.09072 28.2589 8.6778L28.1226 8.18342L26.9122 8.92782L26.2132 9.3256C25.3798 9.7802 24.7547 10.0075 24.338 10.0075C23.8039 10.0075 23.3587 9.80103 23.0026 9.38811C22.6617 8.99791 22.4912 8.5452 22.4912 8.02999C22.4912 7.52235 22.6939 7.06965 23.0992 6.67187C23.6789 6.10362 24.5937 5.58273 25.8439 5.10919C27.0258 4.66595 27.9805 4.44434 28.7079 4.44434C28.9541 4.44434 29.0772 4.56556 29.0772 4.80802C29.0772 4.9747 29.045 5.09972 28.9806 5.18306C28.9162 5.2664 28.7836 5.35164 28.5828 5.43877L27.8669 5.74563C26.8061 6.18886 26.0295 6.64914 25.537 7.12647C25.3969 7.25907 25.3268 7.38787 25.3268 7.51288C25.3268 7.6379 25.4272 7.70041 25.6279 7.70041C25.8249 7.70041 26.2833 7.48826 27.0031 7.06397L27.4748 6.78552C28.2059 6.34608 28.8177 6.12635 29.3102 6.12635C29.7269 6.12635 30.0035 6.31009 30.1398 6.67756C30.1739 6.77605 30.2061 6.87644 30.2365 6.97873C30.2668 7.07723 30.2971 7.16625 30.3274 7.24581C30.3956 7.43143 30.4562 7.52425 30.5092 7.52425C30.566 7.52425 30.6456 7.49773 30.7479 7.44469C30.8502 7.38787 30.9619 7.31778 31.0831 7.23444C31.2082 7.14731 31.337 7.0526 31.4696 6.95032L32.1571 6.39911C32.7671 5.89148 33.2254 5.63766 33.5323 5.63766Z" fill="#1091E8"/>
<path d="M17.3145 6.22797C17.3145 6.36435 17.3656 6.43254 17.4679 6.43254C17.5929 6.43254 17.7539 6.34919 17.9509 6.18251L18.4453 5.75632C18.9681 5.30551 19.4663 5.0801 19.9398 5.0801C20.2467 5.0801 20.5194 5.33581 20.7581 5.84724C20.9665 6.28668 21.154 6.94207 21.3207 7.81338C21.351 7.95734 21.3756 8.02932 21.3945 8.02932C21.4173 8.02932 21.4722 7.99522 21.5593 7.92703C21.6502 7.85884 21.7601 7.77171 21.8889 7.66564C22.8171 6.87388 23.3531 6.43254 23.4971 6.34162C23.6448 6.24691 23.7471 6.1844 23.8039 6.15409C23.8607 6.12 23.9195 6.08969 23.9801 6.06317C24.1316 6.00635 24.2509 5.97794 24.3381 5.97794C24.5048 5.97794 24.5881 6.06507 24.5881 6.23933C24.5881 6.50451 24.4138 6.89092 24.0653 7.39856C23.6751 7.96681 23.158 8.53316 22.514 9.09763C21.7639 9.76058 21.1085 10.0921 20.5478 10.0921C19.9569 10.0921 19.5591 9.69429 19.3545 8.89874C19.3015 8.69417 19.2598 8.50286 19.2295 8.32481L19.1443 7.88157C19.1215 7.76413 19.0912 7.70541 19.0533 7.70541C19.0193 7.70541 18.9454 7.76224 18.8317 7.87589L18.4112 8.30208C17.9415 8.77941 17.5475 9.12793 17.2293 9.34766C16.589 9.79468 16.0284 10.0182 15.5472 10.0182C14.9714 10.0182 14.6324 9.72649 14.5301 9.14309C14.4998 8.96882 14.4846 8.7491 14.4846 8.48392C14.4846 8.21495 14.5225 7.88725 14.5983 7.50084C14.674 7.11444 14.7782 6.72803 14.9108 6.34162C15.1987 5.51576 15.5567 4.81113 15.9848 4.22773L16.4905 3.55719C17.7142 1.95852 18.737 1.15918 19.5591 1.15918C19.7447 1.15918 19.8792 1.2501 19.9625 1.43194C19.9891 1.48876 20.0023 1.574 20.0023 1.68765C20.0023 1.8013 19.9531 1.94905 19.8546 2.13089C19.7561 2.30894 19.6349 2.49457 19.4909 2.68777C19.3469 2.88098 19.1916 3.07797 19.0249 3.27875C18.862 3.47574 18.7124 3.67084 18.576 3.86405L18.1498 4.48344C17.5929 5.32066 17.3145 5.90217 17.3145 6.22797Z" fill="#1091E8"/>
<path d="M12.5754 6.85449C12.5754 7.19923 12.6758 7.3716 12.8766 7.3716C13.3691 7.3716 14.0093 7.03823 14.7973 6.37148L14.9507 6.24078C15.2576 6.03621 15.5057 5.93393 15.6951 5.93393C15.8883 5.93393 16.0095 5.96234 16.0588 6.01916C16.1118 6.07599 16.1383 6.16691 16.1383 6.29192C16.1383 6.57226 15.9963 6.86964 15.7122 7.18408C15.2879 7.69929 14.7064 8.18798 13.9676 8.65016C13.1115 9.1881 12.3443 9.45707 11.6662 9.45707C11.1927 9.45707 10.8953 9.19379 10.7741 8.66721C10.74 8.53083 10.7154 8.40013 10.7002 8.27512C10.6623 7.97205 10.6225 7.80347 10.5809 7.76937C10.5392 7.73528 10.4559 7.73907 10.3308 7.78074C10.2096 7.81862 10.0638 7.88492 9.89329 7.97963C9.7266 8.07055 9.54097 8.1823 9.3364 8.31489C8.25294 9.03468 7.62976 9.44571 7.46686 9.54799C7.07666 9.79045 6.81337 9.91167 6.67699 9.91167C6.54061 9.91167 6.40613 9.88326 6.27354 9.82644C6.14473 9.76961 6.03108 9.69763 5.93259 9.6105C5.72802 9.4173 5.62573 9.2203 5.62573 9.01952C5.62573 7.87166 5.87576 6.86775 6.37582 6.0078C6.70919 5.42818 7.11833 5.02662 7.60324 4.80311C7.84948 4.68567 8.11467 4.62695 8.39879 4.62695C8.91779 4.62695 9.17729 4.79743 9.17729 5.13838C9.17729 5.34674 9.05417 5.68769 8.80793 6.16123L8.63745 6.49649C8.51623 6.72758 8.45751 6.85828 8.4613 6.88859C8.48403 7.00224 8.53517 7.05906 8.61472 7.05906C8.70186 7.05906 8.83066 6.99466 9.00113 6.86586L10.0467 6.08735L10.5695 5.72367C11.1718 5.32969 11.6151 5.1327 11.8992 5.1327C12.0507 5.1327 12.189 5.19331 12.314 5.31454C12.5451 5.53426 12.6607 5.72557 12.6607 5.88847C12.6607 5.9415 12.655 6.00591 12.6436 6.08167C12.636 6.15744 12.6266 6.23889 12.6152 6.32602L12.5925 6.5931C12.5811 6.68402 12.5754 6.77115 12.5754 6.85449Z" fill="#1091E8"/>
<path d="M5.38132 3.33555C5.27146 3.42647 5.15213 3.50224 5.02333 3.56285C4.89452 3.61968 4.75057 3.64809 4.59146 3.64809C4.43235 3.64809 4.27892 3.62157 4.13117 3.56854C3.98343 3.5155 3.85463 3.44163 3.74476 3.34692C3.5061 3.14235 3.38677 2.88095 3.38677 2.56273C3.38677 2.07404 3.79591 1.71036 4.61419 1.47169C4.89073 1.38835 5.11803 1.34668 5.29609 1.34668C5.47414 1.34668 5.60673 1.36752 5.69386 1.40919C5.78478 1.44707 5.85865 1.49821 5.91548 1.56261C6.02913 1.69142 6.08595 1.82401 6.08595 1.96039C6.08595 2.09298 6.06891 2.21421 6.03481 2.32407C6.0045 2.43393 5.95904 2.54758 5.89843 2.66502C5.83782 2.78246 5.76394 2.8999 5.67681 3.01733C5.58968 3.13477 5.49118 3.24084 5.38132 3.33555ZM3.94933 9.59198C3.66142 9.73973 3.38108 9.85716 3.10833 9.9443C2.83557 10.0352 2.56659 10.0807 2.30141 10.0807C2.04002 10.0807 1.76726 10.0182 1.48313 9.89315C1.20279 9.76435 0.952765 9.59387 0.733042 9.38173C0.244347 8.90819 0 8.38161 0 7.80199C0 7.26784 0.15911 6.72611 0.47733 6.1768C0.769031 5.68053 1.14029 5.26381 1.5911 4.92665C2.04191 4.58949 2.46052 4.42091 2.84693 4.42091C3.40003 4.42091 3.69552 4.57623 3.7334 4.88687C3.74476 4.98158 3.75045 5.09144 3.75045 5.21646C3.75045 5.34147 3.72014 5.48543 3.65953 5.64833C3.6027 5.80744 3.52694 5.96844 3.43223 6.13134C3.34131 6.29045 3.23902 6.44767 3.12537 6.60299C3.01551 6.75452 2.90944 6.8928 2.80715 7.01781C2.61016 7.25647 2.45294 7.42884 2.33551 7.53492C2.33551 7.66372 2.43211 7.79631 2.62531 7.93269C2.80715 8.0615 2.96058 8.1259 3.0856 8.1259C3.2144 8.1259 3.36404 8.09559 3.53451 8.03498C3.70878 7.97436 3.88683 7.89291 4.06867 7.79063C4.25429 7.68834 4.44182 7.57091 4.63123 7.43831C4.82444 7.30572 5.01386 7.16934 5.19948 7.02918L6.23938 6.21658C6.65231 5.9173 6.98758 5.76766 7.24518 5.76766C7.34747 5.76766 7.42513 5.80554 7.47816 5.88131C7.53499 5.95329 7.5634 6.03853 7.5634 6.13702C7.5634 6.23552 7.51415 6.3719 7.41566 6.54616C7.31716 6.71664 7.18078 6.90605 7.00652 7.11441C6.83604 7.32277 6.63526 7.5406 6.40417 7.7679C6.17308 7.9952 5.92305 8.21871 5.65408 8.43843C5.38511 8.65816 5.10478 8.86841 4.81307 9.06919C4.52516 9.26618 4.23725 9.44045 3.94933 9.59198Z" fill="#1091E8"/>
</svg>
