<svg width="21" height="22" viewBox="0 0 21 22" fill="none" xmlns="http://www.w3.org/2000/svg">
<path d="M10.5 1.7C9.1389 1.7 7.82805 2.20952 6.85716 3.12494C5.88527 4.04129 5.33333 5.29063 5.33333 6.6C5.33333 7.90937 5.88527 9.15871 6.85716 10.0751C7.82805 10.9905 9.1389 11.5 10.5 11.5C11.8611 11.5 13.1719 10.9905 14.1428 10.0751C15.1147 9.15871 15.6667 7.90937 15.6667 6.6C15.6667 5.29063 15.1147 4.04129 14.1428 3.12494C13.1719 2.20952 11.8611 1.7 10.5 1.7ZM4 6.6C4 4.99199 4.67722 3.44344 5.89326 2.29689C7.11029 1.1494 8.76691 0.5 10.5 0.5C12.2331 0.5 13.8897 1.1494 15.1067 2.29689C16.3228 3.44344 17 4.99199 17 6.6C17 8.20801 16.3228 9.75656 15.1067 10.9031C13.8897 12.0506 12.2331 12.7 10.5 12.7C8.76691 12.7 7.11029 12.0506 5.89326 10.9031C4.67722 9.75656 4 8.20801 4 6.6ZM5.83333 17.1C4.78165 17.1 3.76755 17.4936 3.01545 18.2028C2.26236 18.9128 1.83333 19.8824 1.83333 20.9C1.83333 21.0493 1.77069 21.1989 1.64862 21.314C1.52555 21.4301 1.35266 21.5 1.16667 21.5C0.980672 21.5 0.807786 21.4301 0.684715 21.314C0.562642 21.1989 0.5 21.0493 0.5 20.9C0.5 19.5837 1.05431 18.315 2.05155 17.3747C3.04979 16.4335 4.40966 15.9 5.83333 15.9H15.1667C16.5903 15.9 17.9502 16.4335 18.9485 17.3747C19.9457 18.315 20.5 19.5837 20.5 20.9C20.5 21.0493 20.4374 21.1989 20.3153 21.314C20.1922 21.4301 20.0193 21.5 19.8333 21.5C19.6473 21.5 19.4745 21.4301 19.3514 21.314C19.2293 21.1989 19.1667 21.0493 19.1667 20.9C19.1667 19.8824 18.7376 18.9128 17.9845 18.2028C17.2324 17.4936 16.2183 17.1 15.1667 17.1H5.83333Z" fill="black" stroke="black"/>
</svg>
